HIERARCHY
ROOT Hips
{
  OFFSET 10.000000 -10.000000 0.000000
  CHANNELS 6 Xposition Yposition Zposition Xrotation Yrotation Zrotation
  JOINT Spine
  {
    OFFSET -12.846625 34.000423 26.668973
    CHANNELS 3 Xrotation Yrotation Zrotation
    JOINT Neck
    {
      OFFSET -8.565987 10.465851 10.311200
      CHANNELS 3 Xrotation Yrotation Zrotation
      JOINT Head
      {
        OFFSET -6.506337 -7.210322 3.531532
        CHANNELS 3 Xrotation Yrotation Zrotation
        End Site
        {
          OFFSET 0.0 10.0 0.0
        }
      }
    }
    JOINT LeftShoulder
    {
      OFFSET 16.191032 0.222631 5.090955
      CHANNELS 3 Xrotation Yrotation Zrotation
      JOINT LeftElbow
      {
        OFFSET 10.448869 -20.915173 1.238295
        CHANNELS 3 Xrotation Yrotation Zrotation
        JOINT LeftWrist
        {
          OFFSET 6.900823 -23.754111 0.858906
          CHANNELS 3 Xrotation Yrotation Zrotation
          End Site
          {
            OFFSET -10.0 0.0 0.0
          }
        }
      }
    }
    JOINT RightShoulder
    {
      OFFSET -16.191032 -0.222631 -5.090955
      CHANNELS 3 Xrotation Yrotation Zrotation
      JOINT RightElbow
      {
        OFFSET -13.712075 -14.695798 -8.321647
        CHANNELS 3 Xrotation Yrotation Zrotation
        JOINT RightWrist
        {
          OFFSET -17.210048 -12.326384 1.738171
          CHANNELS 3 Xrotation Yrotation Zrotation
          End Site
          {
            OFFSET 10.0 0.0 0.0
          }
        }
      }
    }
  }
  JOINT LeftHip
  {
    OFFSET 12.282434 0.310965 0.080493
    CHANNELS 3 Xrotation Yrotation Zrotation
    JOINT LeftKnee
    {
      OFFSET 9.663075 -41.630832 4.887251
      CHANNELS 3 Xrotation Yrotation Zrotation
      JOINT LeftAnkle
      {
        OFFSET -5.787469 -21.882853 -26.702196
        CHANNELS 3 Xrotation Yrotation Zrotation
        End Site
        {
          OFFSET 0.0 -5.0 10.0
        }
      }
    }
  }
  JOINT RightHip
  {
    OFFSET -12.282434 -0.310965 -0.080493
    CHANNELS 3 Xrotation Yrotation Zrotation
    JOINT RightKnee
    {
      OFFSET -1.472860 -28.795469 20.184857
      CHANNELS 3 Xrotation Yrotation Zrotation
      JOINT RightAnkle
      {
        OFFSET 0.086358 -39.286014 -3.546105
        CHANNELS 3 Xrotation Yrotation Zrotation
        End Site
        {
          OFFSET 0.0 -5.0 10.0
        }
      }
    }
  }
}
MOTION
Frames: 17
Frame Time: 0.033333
-0.019069 0.021650 -0.066816 -9.039571 2.751103 -163.281925 142.135920 1.539627 -150.294757 120.153979 4.554643 0.652137 0.000000 0.000000 0.000000 39.950425 75.392346 -0.000000 21.725726 -56.129163 -25.187508 0.000000 0.000000 0.000000 8.796857 -44.824050 60.000000 43.864161 -44.608155 -124.693426 0.000000 0.000000 0.000000 -0.189309 -9.736017 -88.846005 -6.025428 20.863764 -106.631857 0.000000 0.000000 0.000000 59.771988 -17.204821 -89.018427 179.382668 5.186359 -100.368628 0.000000 0.000000 0.000000
-0.023992 0.022497 -0.069610 -10.830871 3.372043 -162.947495 142.603641 8.132643 -148.502991 128.629224 -1.956833 -3.158146 0.000000 0.000000 0.000000 40.539072 71.439546 -0.000000 43.229206 -52.769193 -47.950740 0.000000 0.000000 0.000000 -48.465471 -45.304275 120.000000 42.767032 -32.197090 -118.275571 0.000000 0.000000 0.000000 0.208362 -9.409130 -91.240138 -5.401312 22.265185 -104.146798 0.000000 0.000000 0.000000 -59.238949 -19.397472 -92.014580 179.292566 9.320225 -96.266138 0.000000 0.000000 0.000000
-0.025707 0.023035 -0.070654 -13.696061 4.322142 -162.809156 141.313471 12.872667 -148.250826 135.449729 -5.461766 -5.517338 0.000000 0.000000 0.000000 39.894288 66.137820 -0.000000 63.629660 -50.116403 -67.951277 0.000000 0.000000 0.000000 -106.192803 -41.381814 180.000000 40.527191 -22.041801 -113.740581 0.000000 0.000000 0.000000 0.391010 -8.996394 -92.504505 -3.867773 23.425278 -99.595688 0.000000 0.000000 0.000000 -178.631368 -22.889901 -93.526466 179.294970 12.442739 -93.272874 0.000000 0.000000 0.000000
-0.029777 0.023277 -0.072525 -17.463757 5.659064 -162.713444 140.010351 13.593733 -148.095134 135.504705 -5.044438 -5.125262 0.000000 0.000000 0.000000 39.819575 68.391924 0.000000 78.072319 -45.876689 -81.130380 0.000000 0.000000 0.000000 -104.471444 -34.770832 180.000000 43.041367 -19.015256 -109.345517 0.000000 0.000000 0.000000 0.329916 -8.442501 -92.229523 -1.460566 23.893951 -93.644798 0.000000 0.000000 0.000000 -178.453820 -25.760846 -93.572840 179.575468 12.403471 -91.940162 0.000000 0.000000 0.000000
-0.036734 0.022245 -0.071022 -22.161617 7.410682 -162.563524 137.877369 12.951834 -148.930878 133.613145 -4.232795 -4.056376 0.000000 0.000000 0.000000 40.895788 70.366684 -0.000000 83.413670 -45.581630 -85.336431 0.000000 0.000000 0.000000 -105.585046 -26.489391 180.000000 46.156091 -19.562750 -107.781437 0.000000 0.000000 0.000000 0.171692 -8.315842 -91.220428 1.373928 24.286645 -86.811752 0.000000 0.000000 0.000000 -178.636260 -26.942641 -93.000376 179.712453 11.319624 -91.464401 0.000000 0.000000 0.000000
-0.043207 0.021266 -0.067036 -25.655673 8.861837 -162.270939 136.466563 12.280556 -150.144884 132.038931 -4.016891 -3.665686 0.000000 0.000000 0.000000 41.471923 71.013080 -0.000000 86.906693 -47.475886 -87.742337 0.000000 0.000000 0.000000 -107.919860 -19.548285 60.000000 47.982989 -21.019024 -107.822142 0.000000 0.000000 0.000000 0.014384 -8.534366 -90.093099 3.314803 24.589888 -82.081904 0.000000 0.000000 0.000000 -178.678555 -26.564526 -92.947228 179.806889 11.033777 -91.004775 0.000000 0.000000 0.000000
-0.044068 0.020764 -0.065677 -27.715980 9.763031 -162.116535 135.909423 12.043962 -150.844879 130.079196 -3.712390 -3.107992 0.000000 0.000000 0.000000 42.410718 69.245428 -0.000000 88.962777 -49.649177 -89.224242 0.000000 0.000000 0.000000 -109.834612 -15.717422 60.000000 47.936905 -23.106063 -109.535184 0.000000 0.000000 0.000000 -0.147183 -8.502535 -88.997058 4.232405 23.652881 -79.507030 0.000000 0.000000 0.000000 -178.987136 -25.795739 -92.325284 179.794621 10.073720 -91.199309 0.000000 0.000000 0.000000
-0.042411 0.020079 -0.065684 -27.531322 9.855437 -161.813812 137.452967 11.585003 -151.085297 129.665905 -5.250632 -4.325341 0.000000 0.000000 0.000000 42.704175 68.596901 -0.000000 91.088119 -49.128545 -90.823826 0.000000 0.000000 0.000000 -109.777627 -18.132506 60.000000 44.794704 -23.131458 -111.654134 0.000000 0.000000 0.000000 -0.261529 -8.538500 -88.243118 4.092149 21.116944 -78.741645 0.000000 0.000000 0.000000 -179.206338 -25.221099 -91.850624 179.840163 9.210113 -91.006392 0.000000 0.000000 0.000000
-0.039110 0.019060 -0.065924 -26.438999 9.634184 -161.393459 139.164641 10.784084 -151.566004 127.963550 -5.815376 -4.565369 0.000000 0.000000 0.000000 43.127033 68.020174 0.000000 93.130772 -49.763886 -92.409737 0.000000 0.000000 0.000000 -108.222112 -25.381787 180.000000 43.762593 -24.008785 -113.001876 0.000000 0.000000 0.000000 -0.343577 -8.630334 -87.714973 3.718182 18.943513 -78.676448 0.000000 0.000000 0.000000 -179.603546 -23.284587 -90.962699 179.824295 9.035740 -91.107781 0.000000 0.000000 0.000000
-0.039735 0.018315 -0.064175 -25.496043 9.346445 -161.193322 140.529207 10.164260 -152.320513 128.195336 -7.153088 -5.673949 0.000000 0.000000 0.000000 43.578793 67.325420 0.000000 94.514591 -49.587120 -93.470326 0.000000 0.000000 0.000000 -106.534347 -39.948528 180.000000 45.692709 -28.837406 -114.561748 0.000000 0.000000 0.000000 -0.389661 -8.928275 -87.494157 3.350184 16.915705 -78.617128 0.000000 0.000000 0.000000 -179.837643 -20.501726 -90.417998 179.875623 9.411322 -90.756115 0.000000 0.000000 0.000000
-0.035768 0.018236 -0.065695 -23.155005 8.488037 -160.993157 143.983273 11.318913 -154.180546 129.018150 -9.095973 -7.548861 0.000000 0.000000 0.000000 45.462421 64.640347 -0.000000 96.594286 -49.175643 -94.974053 0.000000 0.000000 0.000000 -44.381823 -54.241020 120.000000 48.470788 -36.123683 -117.067199 0.000000 0.000000 0.000000 -0.438622 -9.298689 -87.288085 3.182539 15.522299 -78.190670 0.000000 0.000000 0.000000 -59.969894 -17.711274 -90.077908 179.905533 9.740246 -90.538405 0.000000 0.000000 0.000000
-0.031365 0.018025 -0.068325 -22.801301 8.006413 -161.648625 146.123793 12.498837 -157.006469 130.675316 -13.124954 -11.064353 0.000000 0.000000 0.000000 49.270165 61.767233 -0.000000 103.827090 -46.637341 -100.026361 0.000000 0.000000 0.000000 14.132403 -53.357133 60.000000 59.822076 -48.863352 -112.472279 0.000000 0.000000 0.000000 -0.438295 -9.291278 -87.287952 2.952380 14.256972 -78.145224 0.000000 0.000000 0.000000 59.944064 -16.188784 -89.791526 59.962554 9.169638 -90.209482 0.000000 0.000000 0.000000
-0.030693 0.018194 -0.068631 -22.911578 7.437679 -162.828824 147.108486 14.174852 -160.978145 129.955383 -16.873016 -13.559522 0.000000 0.000000 0.000000 56.377688 60.649398 -0.000000 115.028031 -42.476860 -107.426460 0.000000 0.000000 0.000000 73.367623 -52.667005 -0.000000 72.270642 -55.247949 -104.024329 0.000000 0.000000 0.000000 -0.421436 -8.980894 -87.306076 2.753383 13.739902 -78.528000 0.000000 0.000000 0.000000 179.878077 -15.425166 -89.532145 59.980658 8.889976 -90.117420 0.000000 0.000000 0.000000
-0.030068 0.017648 -0.068859 -23.873181 7.182559 -164.264876 147.466411 15.074850 -164.672683 126.029023 -20.236481 -13.935210 0.000000 0.000000 0.000000 65.295821 62.568834 0.000000 132.990647 -36.404137 -119.323326 0.000000 0.000000 0.000000 73.241592 -59.574653 -0.000000 92.497499 -57.483014 -88.466090 0.000000 0.000000 0.000000 -0.405001 -8.931605 -87.389630 2.723901 14.597754 -79.292086 0.000000 0.000000 0.000000 179.833301 -14.672185 -89.337360 59.891680 9.772155 -90.557827 0.000000 0.000000 0.000000
-0.031577 0.018152 -0.069406 -20.425636 5.716865 -165.274686 150.306535 15.461693 -167.821791 122.692019 -22.338326 -13.620195 0.000000 0.000000 0.000000 76.253661 61.976314 0.000000 145.911735 -29.913704 -126.963827 0.000000 0.000000 0.000000 14.888353 -68.350256 60.000000 109.412713 -48.603515 -76.223814 0.000000 0.000000 0.000000 -0.400123 -9.215752 -87.499056 2.716626 15.336836 -79.817941 0.000000 0.000000 0.000000 179.805869 -14.075619 -89.200540 179.738931 11.582176 -91.205315 0.000000 0.000000 0.000000
-0.032926 0.018906 -0.069463 -16.278354 4.171055 -166.366735 154.266978 14.007309 -169.674966 118.787629 -22.543928 -11.981937 0.000000 0.000000 0.000000 81.898319 42.179470 0.000000 155.465117 -30.110084 -137.108108 0.000000 0.000000 0.000000 -43.814095 -71.484890 120.000000 126.235412 -49.233747 -60.867923 0.000000 0.000000 0.000000 -0.387372 -9.413800 -87.637205 2.925123 17.728042 -80.376241 0.000000 0.000000 0.000000 179.791013 -13.595199 -89.108891 179.558905 13.808428 -91.805296 0.000000 0.000000 0.000000
-0.033224 0.019812 -0.066684 -12.485568 2.793726 -167.748596 156.345599 11.744972 -170.935927 117.600406 -21.574856 -10.948492 0.000000 0.000000 0.000000 83.864094 16.957802 0.000000 159.734018 -33.778437 -145.474874 0.000000 0.000000 0.000000 -44.245982 -66.703638 120.000000 137.502518 -53.864705 -49.184007 0.000000 0.000000 0.000000 -0.328355 -9.075936 -87.931075 2.929432 19.352770 -81.143337 0.000000 0.000000 0.000000 179.783946 -13.078846 -89.043942 179.324916 15.418529 -92.501310 0.000000 0.000000 0.000000
